<svg width="19" height="22" viewBox="0 0 19 22" fill="none" xmlns="http://www.w3.org/2000/svg">
<path d="M4.48633 1.5C4.50748 1.527 4.53613 1.58353 4.53613 1.66699C4.53616 3.21244 4.74803 4.70026 5.14258 6.09277H5.14355C5.1772 6.2174 5.14086 6.32102 5.09961 6.36914L2.8916 8.93652L2.48047 9.41309L2.7334 9.98926C4.25559 13.4663 6.71863 16.3288 9.75293 18.1357L10.4746 18.5654L11.0225 17.9287L13.207 15.3877C14.4098 15.8404 15.7045 16.087 17.0322 16.0928C17.0535 16.1189 17.084 16.1761 17.084 16.2617V20.333C17.084 20.416 17.0543 20.4718 17.0332 20.499C8.31652 20.4696 1.01578 12.1972 1.01562 1.66699C1.01562 1.58366 1.04429 1.52706 1.06543 1.5H4.48633Z" stroke="#F8F5EC" stroke-width="2"/>
</svg>
